<?xml version="1.0" encoding="UTF-8" standalone="no"?>
<!DOCTYPE svg PUBLIC "-//W3C//DTD SVG 1.1//EN"
 "http://www.w3.org/Graphics/SVG/1.1/DTD/svg11.dtd">
<!-- Generated by graphviz version 2.40.1 (20161225.0304)
 -->
<!-- Title: %3 Pages: 1 -->
<svg width="534pt" height="499pt"
 viewBox="0.00 0.00 533.88 499.10" xmlns="http://www.w3.org/2000/svg" xmlns:xlink="http://www.w3.org/1999/xlink">
<g id="graph0" class="graph" transform="scale(1 1) rotate(0) translate(4 495.1036)">
<title>%3</title>
<polygon fill="#ffffff" stroke="transparent" points="-4,4 -4,-495.1036 529.8754,-495.1036 529.8754,4 -4,4"/>
<!-- n0 -->
<g id="node1" class="node">
<title>n0</title>
<ellipse fill="none" stroke="#000000" stroke-width="2" cx="21.4481" cy="-166.1036" rx="21.3963" ry="21.3963"/>
<text text-anchor="start" x="12.9481" y="-163.4036" font-family="Times,serif" font-size="14.00" fill="#000000">x</text>
<text text-anchor="start" x="21.9481" y="-163.4036" font-family="Times,serif" baseline-shift="sub" font-size="14.00" fill="#000000">0</text>
</g>
<!-- n2 -->
<g id="node3" class="node">
<title>n2</title>
<ellipse fill="none" stroke="#b3b3b3" stroke-dasharray="5,2" cx="142.7434" cy="-310.1036" rx="18.6979" ry="18.6979"/>
<text text-anchor="middle" x="142.7434" y="-306.4036" font-family="Times,serif" font-size="14.00" fill="#b3b3b3">+</text>
</g>
<!-- n0&#45;&gt;n2 -->
<!-- n3 -->
<g id="node4" class="node">
<title>n3</title>
<ellipse fill="none" stroke="#000000" cx="142.7434" cy="-89.1036" rx="18.6979" ry="18.6979"/>
<text text-anchor="middle" x="142.7434" y="-85.4036" font-family="Times,serif" font-size="14.00" fill="#000000">+</text>
</g>
<!-- n0&#45;&gt;n3 -->
<!-- n0&#45;&gt;n3 -->
<g id="edge33" class="edge">
<title>n0&#45;&gt;n3</title>
<path fill="none" stroke="#000000" d="M24.1406,-144.7271C28.1095,-123.2475 37.7613,-91.2229 60.8962,-76.1036 77.3068,-65.3788 99.4352,-69.7536 116.5456,-76.1925"/>
<polygon fill="#000000" stroke="#000000" points="116.7313,-76.27 115.3825,-79.4997 125.959,-80.1236 116.7313,-76.27"/>
<text text-anchor="start" x="60.8962" y="-80.9036" font-family="Times,serif" font-size="14.00" fill="#000000">w</text>
<text text-anchor="start" x="73.8962" y="-80.9036" font-family="Times,serif" baseline-shift="sub" font-size="14.00" fill="#000000">3,0</text>
</g>
<!-- n0&#45;&gt;n3 -->
<g id="edge34" class="edge">
<title>n0&#45;&gt;n3</title>
<path fill="none" stroke="#000000" d="M39.4523,-154.0985C46.1592,-149.663 53.8525,-144.6183 60.8962,-140.1036 79.8668,-127.9443 101.5123,-114.4741 117.7769,-104.4321"/>
<polygon fill="#000000" stroke="#000000" points="126.6706,-98.9515 116.321,-101.2181 118.1572,-104.1978 126.6706,-98.9515"/>
<text text-anchor="start" x="60.8962" y="-144.9036" font-family="Times,serif" font-size="14.00" fill="#000000">w</text>
<text text-anchor="start" x="73.8962" y="-144.9036" font-family="Times,serif" baseline-shift="sub" font-size="14.00" fill="#000000">3,1</text>
</g>
<!-- n4 -->
<g id="node5" class="node">
<title>n4</title>
<ellipse fill="none" stroke="#000000" cx="142.7434" cy="-202.1036" rx="31.6951" ry="31.6951"/>
<text text-anchor="middle" x="142.7434" y="-198.4036" font-family="Times,serif" font-size="14.00" fill="#000000">tanh</text>
</g>
<!-- n0&#45;&gt;n4 -->
<!-- n0&#45;&gt;n4 -->
<g id="edge36" class="edge">
<title>n0&#45;&gt;n4</title>
<path fill="none" stroke="#000000" d="M42.355,-161.2724C56.9194,-158.8474 76.5813,-157.4797 92.8962,-163.1036 99.5267,-165.3892 105.9497,-168.9595 111.8563,-173.0318"/>
<polygon fill="#000000" stroke="#000000" points="120.1048,-179.2662 114.2375,-170.4443 112.1271,-173.2365 120.1048,-179.2662"/>
<text text-anchor="start" x="60.8962" y="-167.9036" font-family="Times,serif" font-size="14.00" fill="#000000">w</text>
<text text-anchor="start" x="73.8962" y="-167.9036" font-family="Times,serif" baseline-shift="sub" font-size="14.00" fill="#000000">4,1</text>
</g>
<!-- n7 -->
<g id="node8" class="node">
<title>n7</title>
<ellipse fill="none" stroke="#000000" cx="274.4377" cy="-352.1036" rx="18.6979" ry="18.6979"/>
<text text-anchor="middle" x="274.4377" y="-348.4036" font-family="Times,serif" font-size="14.00" fill="#000000">+</text>
</g>
<!-- n0&#45;&gt;n7 -->
<g id="edge39" class="edge">
<title>n0&#45;&gt;n7</title>
<path fill="none" stroke="#000000" d="M30.9208,-185.5377C52.4631,-229.5599 103.812,-333.4472 110.8962,-338.1036 151.6834,-364.9128 211.1014,-362.1148 245.9612,-357.3269"/>
<polygon fill="#000000" stroke="#000000" points="246.0574,-357.3123 246.584,-360.7725 255.9435,-355.8076 246.0574,-357.3123"/>
<text text-anchor="start" x="126.7434" y="-362.9036" font-family="Times,serif" font-size="14.00" fill="#000000">w</text>
<text text-anchor="start" x="139.7434" y="-362.9036" font-family="Times,serif" baseline-shift="sub" font-size="14.00" fill="#000000">7,0</text>
</g>
<!-- n1 -->
<g id="node2" class="node">
<title>n1</title>
<ellipse fill="none" stroke="#000000" stroke-width="2" cx="21.4481" cy="-348.1036" rx="21.3963" ry="21.3963"/>
<text text-anchor="start" x="12.9481" y="-345.4036" font-family="Times,serif" font-size="14.00" fill="#000000">x</text>
<text text-anchor="start" x="21.9481" y="-345.4036" font-family="Times,serif" baseline-shift="sub" font-size="14.00" fill="#000000">1</text>
</g>
<!-- n1&#45;&gt;n2 -->
<!-- n1&#45;&gt;n2 -->
<g id="edge31" class="edge">
<title>n1&#45;&gt;n2</title>
<path fill="none" stroke="#b3b3b3" stroke-dasharray="1,5" d="M42.9694,-350.3037C57.4595,-351.0429 76.7891,-350.5679 92.8962,-345.1036 102.8551,-341.7251 112.5993,-335.6892 120.7926,-329.5707"/>
<polygon fill="#b3b3b3" stroke="#b3b3b3" points="120.8861,-329.4963 123.0645,-332.2358 128.7133,-323.2725 120.8861,-329.4963"/>
<text text-anchor="start" x="60.8962" y="-354.9036" font-family="Times,serif" font-size="14.00" fill="#b3b3b3">w</text>
<text text-anchor="start" x="73.8962" y="-354.9036" font-family="Times,serif" baseline-shift="sub" font-size="14.00" fill="#b3b3b3">2,0</text>
</g>
<!-- n1&#45;&gt;n2 -->
<g id="edge32" class="edge">
<title>n1&#45;&gt;n2</title>
<path fill="none" stroke="#b3b3b3" stroke-dasharray="1,5" d="M30.761,-367.5679C37.4057,-379.0355 47.5311,-392.5448 60.8962,-399.1036 73.6639,-405.3693 81.4034,-407.4814 92.8962,-399.1036 114.022,-383.7037 97.4706,-365.536 110.8962,-343.1036 113.6868,-338.4408 117.2531,-333.9188 120.983,-329.7937"/>
<polygon fill="#b3b3b3" stroke="#b3b3b3" points="128.1966,-322.4181 118.7023,-327.1201 121.2045,-329.5673 128.1966,-322.4181"/>
<text text-anchor="start" x="60.8962" y="-408.9036" font-family="Times,serif" font-size="14.00" fill="#b3b3b3">w</text>
<text text-anchor="start" x="73.8962" y="-408.9036" font-family="Times,serif" baseline-shift="sub" font-size="14.00" fill="#b3b3b3">2,1</text>
</g>
<!-- n1&#45;&gt;n3 -->
<!-- n1&#45;&gt;n4 -->
<!-- n1&#45;&gt;n4 -->
<g id="edge35" class="edge">
<title>n1&#45;&gt;n4</title>
<path fill="none" stroke="#000000" d="M40.265,-337.3868C55.8278,-327.82 77.7551,-312.6376 92.8962,-295.1036 106.6349,-279.1937 118.0724,-258.8611 126.5113,-241.2673"/>
<polygon fill="#000000" stroke="#000000" points="126.684,-240.8943 129.8599,-242.3652 130.8867,-231.8203 126.684,-240.8943"/>
<text text-anchor="start" x="60.8962" y="-326.9036" font-family="Times,serif" font-size="14.00" fill="#000000">w</text>
<text text-anchor="start" x="73.8962" y="-326.9036" font-family="Times,serif" baseline-shift="sub" font-size="14.00" fill="#000000">4,0</text>
</g>
<!-- n5 -->
<g id="node6" class="node">
<title>n5</title>
<ellipse fill="none" stroke="#000000" cx="274.4377" cy="-51.1036" rx="31.6951" ry="31.6951"/>
<text text-anchor="middle" x="274.4377" y="-47.4036" font-family="Times,serif" font-size="14.00" fill="#000000">tanh</text>
</g>
<!-- n2&#45;&gt;n5 -->
<!-- n6 -->
<g id="node7" class="node">
<title>n6</title>
<ellipse fill="none" stroke="#b3b3b3" stroke-dasharray="5,2" cx="274.4377" cy="-254.1036" rx="18.6979" ry="18.6979"/>
<text text-anchor="middle" x="274.4377" y="-250.4036" font-family="Times,serif" font-size="14.00" fill="#b3b3b3">+</text>
</g>
<!-- n2&#45;&gt;n6 -->
<!-- n2&#45;&gt;n6 -->
<g id="edge38" class="edge">
<title>n2&#45;&gt;n6</title>
<path fill="none" stroke="#b3b3b3" stroke-dasharray="1,5" d="M161.5629,-306.9137C178.5634,-303.602 203.9995,-297.5619 224.5905,-288.1036 233.8182,-283.865 243.2049,-277.9613 251.3071,-272.2612"/>
<polygon fill="#b3b3b3" stroke="#b3b3b3" points="251.4572,-272.1513 253.5246,-274.9755 259.5263,-266.2445 251.4572,-272.1513"/>
<text text-anchor="start" x="192.5905" y="-303.9036" font-family="Times,serif" font-size="14.00" fill="#b3b3b3">w</text>
<text text-anchor="start" x="205.5905" y="-303.9036" font-family="Times,serif" baseline-shift="sub" font-size="14.00" fill="#b3b3b3">6,0</text>
</g>
<!-- n2&#45;&gt;n7 -->
<!-- n3&#45;&gt;n5 -->
<!-- n3&#45;&gt;n5 -->
<g id="edge37" class="edge">
<title>n3&#45;&gt;n5</title>
<path fill="none" stroke="#000000" d="M153.3618,-73.4541C162.2858,-61.8075 176.1931,-46.8135 192.5905,-40.1036 205.5966,-34.7815 220.6414,-35.1473 234.2573,-37.6257"/>
<polygon fill="#000000" stroke="#000000" points="234.5734,-37.6961 233.8113,-41.1122 244.3335,-39.8735 234.5734,-37.6961"/>
<text text-anchor="start" x="192.5905" y="-44.9036" font-family="Times,serif" font-size="14.00" fill="#000000">w</text>
<text text-anchor="start" x="205.5905" y="-44.9036" font-family="Times,serif" baseline-shift="sub" font-size="14.00" fill="#000000">5,0</text>
</g>
<!-- n3&#45;&gt;n6 -->
<!-- n3&#45;&gt;n7 -->
<!-- n4&#45;&gt;n5 -->
<!-- n4&#45;&gt;n6 -->
<!-- n4&#45;&gt;n7 -->
<!-- n8 -->
<g id="node9" class="node">
<title>n8</title>
<ellipse fill="none" stroke="#b3b3b3" stroke-dasharray="5,2" cx="414.1321" cy="-139.1036" rx="18.6979" ry="18.6979"/>
<text text-anchor="middle" x="414.1321" y="-135.4036" font-family="Times,serif" font-size="14.00" fill="#b3b3b3">+</text>
</g>
<!-- n4&#45;&gt;n8 -->
<g id="edge41" class="edge">
<title>n4&#45;&gt;n8</title>
<path fill="none" stroke="#b3b3b3" stroke-dasharray="1,5" d="M171.0197,-187.4211C205.9358,-170.1931 267.6632,-142.6418 324.2849,-132.1036 344.6337,-128.3164 367.9449,-130.3128 385.7227,-133.1265"/>
<polygon fill="#b3b3b3" stroke="#b3b3b3" points="395.7431,-134.8897 386.5009,-129.7096 385.8944,-133.1567 395.7431,-134.8897"/>
<text text-anchor="start" x="258.4377" y="-159.9036" font-family="Times,serif" font-size="14.00" fill="#b3b3b3">w</text>
<text text-anchor="start" x="271.4377" y="-159.9036" font-family="Times,serif" baseline-shift="sub" font-size="14.00" fill="#b3b3b3">8,1</text>
</g>
<!-- n9 -->
<g id="node10" class="node">
<title>n9</title>
<ellipse fill="none" stroke="#000000" cx="414.1321" cy="-223.1036" rx="31.6951" ry="31.6951"/>
<text text-anchor="middle" x="414.1321" y="-219.4036" font-family="Times,serif" font-size="14.00" fill="#000000">tanh</text>
</g>
<!-- n4&#45;&gt;n9 -->
<g id="edge44" class="edge">
<title>n4&#45;&gt;n9</title>
<path fill="none" stroke="#000000" d="M174.7437,-203.3359C207.7388,-204.7305 260.6608,-207.3129 306.2849,-211.1036 328.0279,-212.9101 352.1701,-215.538 372.0908,-217.8744"/>
<polygon fill="#000000" stroke="#000000" points="382.0881,-219.0638 372.5716,-214.4069 372.1581,-217.8824 382.0881,-219.0638"/>
<text text-anchor="start" x="258.4377" y="-215.9036" font-family="Times,serif" font-size="14.00" fill="#000000">w</text>
<text text-anchor="start" x="271.4377" y="-215.9036" font-family="Times,serif" baseline-shift="sub" font-size="14.00" fill="#000000">9,1</text>
</g>
<!-- n5&#45;&gt;n8 -->
<!-- n5&#45;&gt;n8 -->
<g id="edge40" class="edge">
<title>n5&#45;&gt;n8</title>
<path fill="none" stroke="#b3b3b3" stroke-dasharray="1,5" d="M297.8834,-29.4249C316.8179,-14.6509 343.6182,-.0957 364.2849,-14.1036 395.8052,-35.4681 407.3949,-80.2955 411.6557,-110.0504"/>
<polygon fill="#b3b3b3" stroke="#b3b3b3" points="411.6908,-110.3349 408.2172,-110.7641 412.9173,-120.2594 411.6908,-110.3349"/>
<text text-anchor="start" x="328.2849" y="-18.9036" font-family="Times,serif" font-size="14.00" fill="#b3b3b3">w</text>
<text text-anchor="start" x="341.2849" y="-18.9036" font-family="Times,serif" baseline-shift="sub" font-size="14.00" fill="#b3b3b3">8,0</text>
</g>
<!-- n5&#45;&gt;n9 -->
<!-- n5&#45;&gt;n9 -->
<g id="edge45" class="edge">
<title>n5&#45;&gt;n9</title>
<path fill="none" stroke="#000000" d="M294.7505,-76.1139C319.2362,-106.2621 360.4546,-157.0128 387.4762,-190.2834"/>
<polygon fill="#000000" stroke="#000000" points="385.0001,-192.7864 394.0214,-198.3422 390.4338,-188.3733 385.0001,-192.7864"/>
<text text-anchor="start" x="328.2849" y="-161.9036" font-family="Times,serif" font-size="14.00" fill="#000000">w</text>
<text text-anchor="start" x="341.2849" y="-161.9036" font-family="Times,serif" baseline-shift="sub" font-size="14.00" fill="#000000">9,2</text>
</g>
<!-- n10 -->
<g id="node11" class="node">
<title>n10</title>
<ellipse fill="none" stroke="#b3b3b3" stroke-dasharray="5,2" cx="414.1321" cy="-343.1036" rx="31.6951" ry="31.6951"/>
<text text-anchor="middle" x="414.1321" y="-339.4036" font-family="Times,serif" font-size="14.00" fill="#b3b3b3">tanh</text>
</g>
<!-- n5&#45;&gt;n10 -->
<!-- n12 -->
<g id="node13" class="node">
<title>n12</title>
<ellipse fill="none" stroke="#000000" stroke-width="2" cx="504.4273" cy="-151.1036" rx="21.3963" ry="21.3963"/>
<text text-anchor="start" x="495.9273" y="-148.4036" font-family="Times,serif" font-size="14.00" fill="#000000">o</text>
<text text-anchor="start" x="504.9273" y="-148.4036" font-family="Times,serif" baseline-shift="sub" font-size="14.00" fill="#000000">1</text>
</g>
<!-- n5&#45;&gt;n12 -->
<g id="edge50" class="edge">
<title>n5&#45;&gt;n12</title>
<path fill="none" stroke="#000000" d="M294.7058,-25.9397C302.9122,-17.6675 313.0979,-9.4767 324.2849,-5.1036 340.8426,1.3689 347.9308,1.8674 364.2849,-5.1036 420.8054,-29.1958 465.5015,-88.5002 488.1539,-123.6682"/>
<polygon fill="#000000" stroke="#000000" points="485.4056,-125.8727 493.6912,-132.4756 491.3316,-122.1468 485.4056,-125.8727"/>
</g>
<!-- n6&#45;&gt;n8 -->
<!-- n6&#45;&gt;n8 -->
<g id="edge42" class="edge">
<title>n6&#45;&gt;n8</title>
<path fill="none" stroke="#b3b3b3" stroke-dasharray="1,5" d="M289.1234,-242.014C313.4787,-221.9641 362.4011,-181.6899 391.2946,-157.904"/>
<polygon fill="#b3b3b3" stroke="#b3b3b3" points="393.7267,-160.4353 399.2227,-151.3774 389.2777,-155.031 393.7267,-160.4353"/>
<text text-anchor="start" x="328.2849" y="-214.9036" font-family="Times,serif" font-size="14.00" fill="#b3b3b3">w</text>
<text text-anchor="start" x="341.2849" y="-214.9036" font-family="Times,serif" baseline-shift="sub" font-size="14.00" fill="#b3b3b3">8,2</text>
</g>
<!-- n6&#45;&gt;n9 -->
<!-- n6&#45;&gt;n10 -->
<!-- n6&#45;&gt;n10 -->
<g id="edge47" class="edge">
<title>n6&#45;&gt;n10</title>
<path fill="none" stroke="#b3b3b3" stroke-dasharray="1,5" d="M284.7054,-270.2062C293.7175,-283.165 307.9187,-300.9897 324.2849,-312.1036 338.8678,-322.0065 356.9256,-329.0428 373.0188,-333.8804"/>
<polygon fill="#b3b3b3" stroke="#b3b3b3" points="382.7365,-336.6144 374.0581,-330.5369 373.1102,-333.9061 382.7365,-336.6144"/>
<text text-anchor="start" x="324.2849" y="-334.9036" font-family="Times,serif" font-size="14.00" fill="#b3b3b3">w</text>
<text text-anchor="start" x="337.2849" y="-334.9036" font-family="Times,serif" baseline-shift="sub" font-size="14.00" fill="#b3b3b3">10,1</text>
</g>
<!-- n7&#45;&gt;n8 -->
<!-- n7&#45;&gt;n9 -->
<!-- n7&#45;&gt;n9 -->
<g id="edge43" class="edge">
<title>n7&#45;&gt;n9</title>
<path fill="none" stroke="#000000" d="M292.833,-356.9756C312.4303,-361.0123 343.4414,-363.9592 364.2849,-349.1036 382.5003,-336.1211 374.1029,-322.9219 382.2849,-302.1036 387.4143,-289.0524 393.1134,-274.8303 398.2564,-262.0956"/>
<polygon fill="#000000" stroke="#000000" points="398.3108,-261.9609 401.5552,-263.2739 402.0622,-252.6912 398.3108,-261.9609"/>
<text text-anchor="start" x="328.2849" y="-364.9036" font-family="Times,serif" font-size="14.00" fill="#000000">w</text>
<text text-anchor="start" x="341.2849" y="-364.9036" font-family="Times,serif" baseline-shift="sub" font-size="14.00" fill="#000000">9,0</text>
</g>
<!-- n7&#45;&gt;n10 -->
<!-- n7&#45;&gt;n10 -->
<g id="edge46" class="edge">
<title>n7&#45;&gt;n10</title>
<path fill="none" stroke="#b3b3b3" stroke-dasharray="1,5" d="M282.5771,-369.121C290.7777,-384.076 304.9789,-404.8535 324.2849,-414.1036 340.3174,-421.7853 348.5107,-422.3026 364.2849,-414.1036 377.9658,-406.9926 388.6764,-394.2146 396.6043,-381.4392"/>
<polygon fill="#b3b3b3" stroke="#b3b3b3" points="396.6651,-381.3335 399.6991,-383.0784 401.6507,-372.6649 396.6651,-381.3335"/>
<text text-anchor="start" x="324.2849" y="-423.9036" font-family="Times,serif" font-size="14.00" fill="#b3b3b3">w</text>
<text text-anchor="start" x="337.2849" y="-423.9036" font-family="Times,serif" baseline-shift="sub" font-size="14.00" fill="#b3b3b3">10,0</text>
</g>
<!-- n7&#45;&gt;n10 -->
<g id="edge48" class="edge">
<title>n7&#45;&gt;n10</title>
<path fill="none" stroke="#b3b3b3" stroke-dasharray="1,5" d="M276.2426,-371.1223C279.9553,-398.2496 291.1296,-447.1903 324.2849,-469.1036 339.116,-478.906 349.5826,-479.0982 364.2849,-469.1036 379.0068,-459.0957 393.7436,-416.8837 403.3323,-384.0426"/>
<polygon fill="#b3b3b3" stroke="#b3b3b3" points="406.7632,-384.7737 406.1372,-374.1974 400.0311,-382.8557 406.7632,-384.7737"/>
<text text-anchor="start" x="324.2849" y="-480.9036" font-family="Times,serif" font-size="14.00" fill="#b3b3b3">w</text>
<text text-anchor="start" x="337.2849" y="-480.9036" font-family="Times,serif" baseline-shift="sub" font-size="14.00" fill="#b3b3b3">10,2</text>
</g>
<!-- n11 -->
<g id="node12" class="node">
<title>n11</title>
<ellipse fill="none" stroke="#000000" stroke-width="2" cx="504.4273" cy="-223.1036" rx="21.3963" ry="21.3963"/>
<text text-anchor="start" x="495.9273" y="-220.4036" font-family="Times,serif" font-size="14.00" fill="#000000">o</text>
<text text-anchor="start" x="504.9273" y="-220.4036" font-family="Times,serif" baseline-shift="sub" font-size="14.00" fill="#000000">0</text>
</g>
<!-- n8&#45;&gt;n11 -->
<!-- n8&#45;&gt;n12 -->
<!-- n9&#45;&gt;n11 -->
<!-- n9&#45;&gt;n11 -->
<g id="edge49" class="edge">
<title>n9&#45;&gt;n11</title>
<path fill="none" stroke="#000000" d="M445.4596,-229.5643C454.539,-229.9558 464.4437,-229.95 473.4985,-229.5468"/>
<polygon fill="#000000" stroke="#000000" points="473.8842,-233.0293 483.6374,-228.8911 473.4323,-226.0439 473.8842,-233.0293"/>
</g>
<!-- n9&#45;&gt;n12 -->
<!-- n10&#45;&gt;n11 -->
<!-- n10&#45;&gt;n12 -->
</g>
</svg>
