<?xml version="1.0" encoding="UTF-8" standalone="no"?>
<!-- Created with Inkscape (http://www.inkscape.org/) -->

<svg
   xmlns:dc="http://purl.org/dc/elements/1.1/"
   xmlns:cc="http://creativecommons.org/ns#"
   xmlns:rdf="http://www.w3.org/1999/02/22-rdf-syntax-ns#"
   xmlns:svg="http://www.w3.org/2000/svg"
   xmlns="http://www.w3.org/2000/svg"
   xmlns:sodipodi="http://sodipodi.sourceforge.net/DTD/sodipodi-0.dtd"
   xmlns:inkscape="http://www.inkscape.org/namespaces/inkscape"
   width="13.657237mm"
   height="18.491339mm"
   viewBox="0 0 48.391785 65.520491"
   id="svg2"
   version="1.1"
   inkscape:version="0.91 r13725"
   sodipodi:docname="audi_mini_logo.svg">
  <defs
     id="defs4" />
  <sodipodi:namedview
     id="base"
     pagecolor="#ffffff"
     bordercolor="#666666"
     borderopacity="1.0"
     inkscape:pageopacity="0.0"
     inkscape:pageshadow="2"
     inkscape:zoom="1.3988439"
     inkscape:cx="79.499336"
     inkscape:cy="79.742065"
     inkscape:document-units="px"
     inkscape:current-layer="layer1"
     showgrid="false"
     inkscape:window-width="2560"
     inkscape:window-height="1376"
     inkscape:window-x="0"
     inkscape:window-y="27"
     inkscape:window-maximized="1"
     borderlayer="false"
     fit-margin-top="0"
     fit-margin-left="0"
     fit-margin-right="0"
     fit-margin-bottom="0" />
  <metadata
     id="metadata7">
    <rdf:RDF>
      <cc:Work
         rdf:about="">
        <dc:format>image/svg+xml</dc:format>
        <dc:type
           rdf:resource="http://purl.org/dc/dcmitype/StillImage" />
        <dc:title></dc:title>
      </cc:Work>
    </rdf:RDF>
  </metadata>
  <g
     inkscape:label="Layer 1"
     inkscape:groupmode="layer"
     id="layer1"
     transform="translate(-328.7195,-590.03515)">
    <rect
       style="fill:#afc6e9;fill-opacity:1;stroke:#4f5853;stroke-opacity:1"
       id="rect4316"
       width="235.19421"
       height="95.078514"
       x="241.3087"
       y="435.7193" />
    <text
       xml:space="preserve"
       style="font-style:normal;font-variant:normal;font-weight:normal;font-stretch:normal;font-size:50px;line-height:125%;font-family:'Neuropol X';-inkscape-font-specification:'Neuropol X';letter-spacing:0px;word-spacing:0px;fill:#000000;fill-opacity:1;stroke:none;stroke-width:1px;stroke-linecap:butt;stroke-linejoin:miter;stroke-opacity:1"
       x="365.71429"
       y="686.64795"
       id="text4209"
       sodipodi:linespacing="125%"><tspan
         sodipodi:role="line"
         id="tspan4211"
         x="365.71429"
         y="686.64795" /></text>
    <path
       inkscape:connector-curvature="0"
       id="path4218"
       style="font-style:normal;font-variant:normal;font-weight:normal;font-stretch:normal;font-size:medium;line-height:125%;font-family:'Neuropol X';-inkscape-font-specification:'Neuropol X';letter-spacing:0px;word-spacing:0px;fill:#000000;fill-opacity:1;stroke:none;stroke-width:1px;stroke-linecap:butt;stroke-linejoin:miter;stroke-opacity:1"
       d="m 277.37383,489.51134 28.36961,0 -14.01224,-25.88613 -14.35737,25.88613 z m 32.23506,6.51124 -35.96246,0 -7.79992,13.34009 q -0.55221,0.87346 -1.24246,1.34989 -0.69026,0.39703 -1.24247,0.39703 -1.44954,0 -2.62298,-0.95287 -1.10441,-1.03227 -1.10441,-2.77918 0,-0.95287 0.5522,-1.98514 l 26.85105,-46.45209 q 0.75929,-1.3499 2.00175,-2.06454 1.31149,-0.71465 2.55396,-0.71465 2.69201,0 4.34863,2.77919 l 27.12715,46.45209 q 0.48318,0.47643 0.55221,1.03227 0.13805,0.55584 0.13805,0.95287 0,1.66751 -1.10442,2.62037 -1.03538,0.95287 -2.4159,0.95287 -0.69026,0 -1.51857,-0.39703 -0.75928,-0.39703 -1.38052,-1.27048 l -7.73089,-13.26069 z" />
    <path
       inkscape:connector-curvature="0"
       id="path4220"
       style="font-style:normal;font-variant:normal;font-weight:normal;font-stretch:normal;font-size:medium;line-height:125%;font-family:'Neuropol X';-inkscape-font-specification:'Neuropol X';letter-spacing:0px;word-spacing:0px;fill:#000000;fill-opacity:1;stroke:none;stroke-width:1px;stroke-linecap:butt;stroke-linejoin:miter;stroke-opacity:1"
       d="m 375.76045,498.72236 q 0,11.9902 -18.22282,11.9902 l -11.32024,0 q -18.36087,0 -18.36087,-11.9902 l 0,-26.75959 q 0,-3.1762 3.17519,-3.1762 3.24421,0 3.24421,3.1762 l 0,26.75959 q 0,5.71718 10.83706,5.71718 l 13.46004,0 q 10.56095,0 10.56095,-5.55837 l 0,-26.9184 q 0,-3.0968 3.38226,-3.0968 3.24422,0 3.24422,3.0968 l 0,26.75959 z" />
    <path
       inkscape:connector-curvature="0"
       id="path4222"
       style="font-style:normal;font-variant:normal;font-weight:normal;font-stretch:normal;font-size:medium;line-height:125%;font-family:'Neuropol X';-inkscape-font-specification:'Neuropol X';letter-spacing:0px;word-spacing:0px;fill:#000000;fill-opacity:1;stroke:none;stroke-width:1px;stroke-linecap:butt;stroke-linejoin:miter;stroke-opacity:1"
       d="m 426.10184,475.69482 -25.47052,0 c -6.6725,0 -10.00875,2.4351 -10.00875,7.30529 l 0,14.76939 c 0,4.44669 3.1982,6.67004 9.59459,6.67004 l 15.04763,0 c 7.2247,0 10.83705,-2.22335 10.83705,-6.67004 z m 6.41941,22.94813 c 0,8.04641 -6.09728,12.06961 -18.29185,12.06961 l -12.21757,0 c -11.91846,0 -17.87768,-3.78498 -17.87768,-11.35496 l 0,-17.31035 c 0,-8.41696 5.95922,-12.62544 17.87768,-12.62544 l 24.09001,0 c 0.0617,-3.22084 0.36792,-6.70201 -0.20401,-9.83413 -0.26533,-4.20716 -1.02049,-7.01743 -3.7064,-8.49955 -1.96867,-1.08634 -5.33586,-1.31491 -8.49291,-1.58163 -1.70722,-0.0906 -6.23467,0.0445 -9.72732,1.0939 -5.6064,1.6845 -12.14904,4.60719 -12.19846,2.34384 -0.11161,-1.77204 5.45264,-5.31699 12.07122,-6.80604 6.7802,-1.52542 14.65237,-0.96266 17.4332,-0.0164 1.85957,0.63277 5.70596,2.07829 7.98081,4.38683 2.49644,2.53341 3.33948,6.04247 3.26328,9.14635 z"
       sodipodi:nodetypes="csssssscssssssccscscssscs" />
    <text
       xml:space="preserve"
       style="font-style:normal;font-weight:normal;font-size:66.75714111px;line-height:125%;font-family:Sans;letter-spacing:0px;word-spacing:0px;fill:#000000;fill-opacity:1;stroke:none;stroke-width:1px;stroke-linecap:butt;stroke-linejoin:miter;stroke-opacity:1"
       x="325.01947"
       y="697.66693"
       id="text4213"
       sodipodi:linespacing="125%"
       transform="scale(1.3287049,0.75261257)"><tspan
         sodipodi:role="line"
         id="tspan4215"
         x="325.01947"
         y="697.66693"
         style="font-style:normal;font-variant:normal;font-weight:normal;font-stretch:normal;font-family:'Neuropol X';-inkscape-font-specification:'Neuropol X'">i</tspan></text>
    <path
       inkscape:connector-curvature="0"
       id="path4222-2"
       style="font-style:normal;font-variant:normal;font-weight:normal;font-stretch:normal;font-size:medium;line-height:125%;font-family:'Neuropol X';-inkscape-font-specification:'Neuropol X';letter-spacing:0px;word-spacing:0px;fill:#d2d3d4;fill-opacity:1;stroke:none;stroke-width:1px;stroke-linecap:butt;stroke-linejoin:miter;stroke-opacity:1"
       d="m 370.68718,620.5379 -25.47052,0 c -6.6725,0 -10.00875,2.4351 -10.00875,7.30529 l 0,14.76939 c 0,4.44669 3.1982,6.67004 9.59459,6.67004 l 15.04763,0 c 7.2247,0 10.83705,-2.22335 10.83705,-6.67004 z m 6.41941,22.94813 c 0,8.04641 -6.09728,12.06961 -18.29185,12.06961 l -12.21757,0 c -11.91846,0 -17.87768,-3.78498 -17.87768,-11.35496 l 0,-17.31035 c 0,-8.41696 5.95922,-12.62544 17.87768,-12.62544 l 24.09001,0 c 0.0617,-3.22084 0.36792,-6.70201 -0.20401,-9.83413 -0.26533,-4.20716 -1.02049,-7.01743 -3.7064,-8.49955 -1.96867,-1.08634 -5.33586,-1.31491 -8.49291,-1.58163 -1.70722,-0.0906 -6.23467,0.0445 -9.72732,1.0939 -5.6064,1.6845 -12.14904,4.60719 -12.19846,2.34384 -0.11161,-1.77204 5.45264,-5.31699 12.07122,-6.80604 6.7802,-1.52542 14.65237,-0.96266 17.4332,-0.0164 1.85957,0.63277 5.70596,2.07829 7.98081,4.38683 2.49644,2.53341 3.33948,6.04247 3.26328,9.14635 z"
       sodipodi:nodetypes="csssssscssssssccscscssscs" />
  </g>
</svg>
